<svg xmlns="http://www.w3.org/2000/svg" viewBox="0 0 400 620" preserveAspectRatio="none">
  <defs>
    <pattern id="dot" width="8" height="8" patternUnits="userSpaceOnUse">
      <circle cx="4" cy="4" r="1.15" fill="#cbb5aa" opacity=".72"/>
    </pattern>
    <pattern id="loop-x" width="34" height="30" patternUnits="userSpaceOnUse">
      <path d="M1 21C5 5 15 5 17 18C19 5 29 5 33 21" fill="none" stroke="#c7aea2" stroke-width="1.4"/>
      <circle cx="17" cy="13" r="4.5" fill="none" stroke="#d5c0b6" stroke-width="1"/>
      <circle cx="17" cy="13" r="1.6" fill="#c7aea2"/>
    </pattern>
    <pattern id="loop-y" width="30" height="34" patternUnits="userSpaceOnUse">
      <path d="M21 1C5 5 5 15 18 17C5 19 5 29 21 33" fill="none" stroke="#c7aea2" stroke-width="1.4"/>
      <circle cx="13" cy="17" r="4.5" fill="none" stroke="#d5c0b6" stroke-width="1"/>
      <circle cx="13" cy="17" r="1.6" fill="#c7aea2"/>
    </pattern>
  </defs>

  <rect x="18" y="18" width="364" height="584" rx="22" fill="#fcf8f1"/>
  <rect x="15" y="12" width="370" height="42" rx="20" fill="url(#dot)"/>
  <rect x="15" y="566" width="370" height="42" rx="20" fill="url(#dot)"/>
  <rect x="10" y="42" width="42" height="536" rx="20" fill="url(#dot)"/>
  <rect x="348" y="42" width="42" height="536" rx="20" fill="url(#dot)"/>

  <rect x="27" y="13" width="346" height="30" fill="url(#loop-x)"/>
  <rect x="27" y="577" width="346" height="30" fill="url(#loop-x)" transform="rotate(180 200 592)"/>
  <rect x="11" y="47" width="30" height="526" fill="url(#loop-y)"/>
  <rect x="359" y="47" width="30" height="526" fill="url(#loop-y)" transform="rotate(180 374 310)"/>

  <g fill="#fcf8f1" stroke="#c7aea2" stroke-width="1.3">
    <circle cx="24" cy="24" r="17"/><circle cx="58" cy="24" r="17"/><circle cx="92" cy="24" r="17"/>
    <circle cx="126" cy="24" r="17"/><circle cx="160" cy="24" r="17"/><circle cx="194" cy="24" r="17"/>
    <circle cx="228" cy="24" r="17"/><circle cx="262" cy="24" r="17"/><circle cx="296" cy="24" r="17"/>
    <circle cx="330" cy="24" r="17"/><circle cx="364" cy="24" r="17"/>
    <circle cx="24" cy="596" r="17"/><circle cx="58" cy="596" r="17"/><circle cx="92" cy="596" r="17"/>
    <circle cx="126" cy="596" r="17"/><circle cx="160" cy="596" r="17"/><circle cx="194" cy="596" r="17"/>
    <circle cx="228" cy="596" r="17"/><circle cx="262" cy="596" r="17"/><circle cx="296" cy="596" r="17"/>
    <circle cx="330" cy="596" r="17"/><circle cx="364" cy="596" r="17"/>
  </g>

  <rect x="44" y="44" width="312" height="532" rx="7" fill="none" stroke="#d5c0b6" stroke-width="1.2"/>
  <rect x="50" y="50" width="300" height="520" rx="5" fill="none" stroke="#e4d5cd" stroke-width="1" stroke-dasharray="2 6"/>
</svg>
